<svg xmlns="http://www.w3.org/2000/svg" xmlns:xlink="http://www.w3.org/1999/xlink" width="500" zoomAndPan="magnify" viewBox="0 0 375 374.999991" height="500" preserveAspectRatio="xMidYMid meet" version="1.0"><defs><clipPath id="afccdca399"><path d="M 146.488281 143.828125 L 366.238281 143.828125 L 366.238281 363.578125 L 146.488281 363.578125 Z M 146.488281 143.828125 " clip-rule="nonzero"/></clipPath><clipPath id="4c879a915e"><path d="M 8.753906 143.828125 L 228.351562 143.828125 L 228.351562 363.578125 L 8.753906 363.578125 Z M 8.753906 143.828125 " clip-rule="nonzero"/></clipPath><clipPath id="b483f224f5"><path d="M 113 11 L 262 11 L 262 116 L 113 116 Z M 113 11 " clip-rule="nonzero"/></clipPath><clipPath id="49b22dc37a"><path d="M 187.5 11.257812 L 261.214844 84.976562 L 187.5 158.691406 L 113.785156 84.976562 Z M 187.5 11.257812 " clip-rule="nonzero"/></clipPath><clipPath id="f0eab5febf"><path d="M 187.5 158.742188 L 113.785156 85.023438 L 187.5 11.308594 L 261.214844 85.023438 Z M 187.5 158.742188 " clip-rule="nonzero"/></clipPath></defs><g clip-path="url(#afccdca399)"><path fill="#056b14" d="M 366.390625 241.75 L 366.390625 143.828125 C 244.941406 143.828125 146.488281 242.28125 146.488281 363.730469 L 244.410156 363.730469 C 244.410156 296.363281 299.023438 241.75 366.390625 241.75 Z M 366.390625 241.75 " fill-opacity="1" fill-rule="nonzero"/></g><g clip-path="url(#4c879a915e)"><path fill="#00bf63" d="M 8.601562 241.75 L 8.601562 143.828125 C 130.050781 143.828125 228.503906 242.28125 228.503906 363.730469 L 130.578125 363.730469 C 130.578125 296.363281 75.96875 241.75 8.601562 241.75 Z M 8.601562 241.75 " fill-opacity="1" fill-rule="nonzero"/></g><g clip-path="url(#b483f224f5)"><g clip-path="url(#49b22dc37a)"><g clip-path="url(#f0eab5febf)"><path fill="#006c35" d="M 113.757812 85 C 154.484375 125.726562 220.511719 125.726562 261.238281 85 L 187.5 11.261719 Z M 113.757812 85 " fill-opacity="1" fill-rule="nonzero"/></g></g></g></svg>